<mxfile host="app.diagrams.net" modified="2023-09-22T17:43:07.205Z" agent="Mozilla/5.0 (Windows NT 10.0; Win64; x64) AppleWebKit/537.36 (KHTML, like Gecko) Chrome/116.0.0.0 Safari/537.36" etag="dk00Eafd9gy4q-u3Q_0L" version="21.7.5" type="google">
  <diagram name="Page-1" id="LYLqG2INBFr1rMwK7_oO">
    <mxGraphModel grid="1" page="1" gridSize="1" guides="1" tooltips="1" connect="1" arrows="1" fold="1" pageScale="1" pageWidth="1169" pageHeight="827" math="0" shadow="0">
      <root>
        <mxCell id="0" />
        <mxCell id="1" parent="0" />
        <mxCell id="c7aUdQC4seHfo43LI_77-1" value="&lt;b&gt;&lt;font style=&quot;font-size: 15px;&quot;&gt;login&lt;/font&gt;&lt;/b&gt;" style="whiteSpace=wrap;html=1;align=center;fillColor=#f5f5f5;strokeColor=#666666;fillStyle=auto;gradientColor=#b3b3b3;strokeWidth=2;" vertex="1" parent="1">
          <mxGeometry x="320" y="120" width="100" height="40" as="geometry" />
        </mxCell>
        <mxCell id="c7aUdQC4seHfo43LI_77-2" value="&lt;font style=&quot;font-size: 15px;&quot;&gt;username&lt;/font&gt;" style="ellipse;whiteSpace=wrap;html=1;align=center;strokeWidth=2;fillColor=#eeeeee;strokeColor=#36393d;" vertex="1" parent="1">
          <mxGeometry x="400" y="30" width="100" height="50" as="geometry" />
        </mxCell>
        <mxCell id="c7aUdQC4seHfo43LI_77-3" value="&lt;span style=&quot;font-size: 15px;&quot;&gt;user_password&lt;/span&gt;" style="ellipse;whiteSpace=wrap;html=1;align=center;strokeWidth=2;fillColor=#eeeeee;strokeColor=#36393d;" vertex="1" parent="1">
          <mxGeometry x="110" y="115" width="130" height="50" as="geometry" />
        </mxCell>
        <mxCell id="c7aUdQC4seHfo43LI_77-5" value="&lt;font style=&quot;font-size: 15px;&quot;&gt;login_id&lt;/font&gt;" style="ellipse;whiteSpace=wrap;html=1;align=center;fontStyle=4;fillColor=#eeeeee;strokeColor=#36393d;strokeWidth=2;" vertex="1" parent="1">
          <mxGeometry x="210" y="30" width="100" height="50" as="geometry" />
        </mxCell>
        <mxCell id="c7aUdQC4seHfo43LI_77-6" value="" style="endArrow=none;html=1;rounded=0;strokeWidth=2;" edge="1" parent="1" target="c7aUdQC4seHfo43LI_77-1">
          <mxGeometry relative="1" as="geometry">
            <mxPoint x="240" y="139.5" as="sourcePoint" />
            <mxPoint x="400" y="139.5" as="targetPoint" />
          </mxGeometry>
        </mxCell>
        <mxCell id="c7aUdQC4seHfo43LI_77-7" value="" style="endArrow=none;html=1;rounded=0;strokeWidth=2;exitX=0.676;exitY=0.992;exitDx=0;exitDy=0;exitPerimeter=0;" edge="1" parent="1" source="c7aUdQC4seHfo43LI_77-5">
          <mxGeometry relative="1" as="geometry">
            <mxPoint x="260" y="100" as="sourcePoint" />
            <mxPoint x="340" y="120" as="targetPoint" />
          </mxGeometry>
        </mxCell>
        <mxCell id="c7aUdQC4seHfo43LI_77-8" value="" style="endArrow=none;html=1;rounded=0;strokeWidth=2;exitX=0.5;exitY=0;exitDx=0;exitDy=0;entryX=0.256;entryY=0.944;entryDx=0;entryDy=0;entryPerimeter=0;" edge="1" parent="1" source="c7aUdQC4seHfo43LI_77-1" target="c7aUdQC4seHfo43LI_77-2">
          <mxGeometry relative="1" as="geometry">
            <mxPoint x="360" y="90" as="sourcePoint" />
            <mxPoint x="430" y="80" as="targetPoint" />
          </mxGeometry>
        </mxCell>
        <mxCell id="c7aUdQC4seHfo43LI_77-9" value="&lt;b&gt;&lt;font style=&quot;font-size: 15px;&quot;&gt;user&lt;/font&gt;&lt;/b&gt;" style="whiteSpace=wrap;html=1;align=center;fillColor=#f5f5f5;strokeColor=#666666;fillStyle=auto;gradientColor=#b3b3b3;strokeWidth=2;" vertex="1" parent="1">
          <mxGeometry x="100" y="310" width="100" height="40" as="geometry" />
        </mxCell>
        <mxCell id="c7aUdQC4seHfo43LI_77-10" value="&lt;font style=&quot;font-size: 15px;&quot;&gt;user_id&lt;/font&gt;" style="ellipse;whiteSpace=wrap;html=1;align=center;fontStyle=4;fillColor=#eeeeee;strokeColor=#36393d;strokeWidth=2;" vertex="1" parent="1">
          <mxGeometry x="-70" y="230" width="100" height="50" as="geometry" />
        </mxCell>
        <mxCell id="c7aUdQC4seHfo43LI_77-11" value="&lt;font style=&quot;font-size: 15px;&quot;&gt;name&lt;/font&gt;" style="ellipse;whiteSpace=wrap;html=1;align=center;strokeWidth=2;fillColor=#eeeeee;strokeColor=#36393d;" vertex="1" parent="1">
          <mxGeometry x="-90" y="340" width="100" height="50" as="geometry" />
        </mxCell>
        <mxCell id="c7aUdQC4seHfo43LI_77-12" value="&lt;font style=&quot;font-size: 15px;&quot;&gt;contact_num&lt;/font&gt;" style="ellipse;whiteSpace=wrap;html=1;align=center;strokeWidth=2;fillColor=#eeeeee;strokeColor=#36393d;" vertex="1" parent="1">
          <mxGeometry x="40" y="430" width="110" height="50" as="geometry" />
        </mxCell>
        <mxCell id="c7aUdQC4seHfo43LI_77-13" value="&lt;font style=&quot;font-size: 15px;&quot;&gt;address&lt;/font&gt;" style="ellipse;whiteSpace=wrap;html=1;align=center;strokeWidth=2;fillColor=#eeeeee;strokeColor=#36393d;" vertex="1" parent="1">
          <mxGeometry x="220" y="400" width="100" height="50" as="geometry" />
        </mxCell>
        <mxCell id="c7aUdQC4seHfo43LI_77-14" value="" style="endArrow=none;html=1;rounded=0;strokeWidth=2;entryX=0;entryY=0;entryDx=0;entryDy=0;" edge="1" parent="1" target="c7aUdQC4seHfo43LI_77-9">
          <mxGeometry relative="1" as="geometry">
            <mxPoint x="20" y="270" as="sourcePoint" />
            <mxPoint x="100" y="270.5" as="targetPoint" />
          </mxGeometry>
        </mxCell>
        <mxCell id="c7aUdQC4seHfo43LI_77-15" value="" style="endArrow=none;html=1;rounded=0;strokeWidth=2;entryX=0;entryY=0.75;entryDx=0;entryDy=0;" edge="1" parent="1" target="c7aUdQC4seHfo43LI_77-9">
          <mxGeometry relative="1" as="geometry">
            <mxPoint x="10" y="364.5" as="sourcePoint" />
            <mxPoint x="90" y="365" as="targetPoint" />
          </mxGeometry>
        </mxCell>
        <mxCell id="c7aUdQC4seHfo43LI_77-16" value="" style="endArrow=none;html=1;rounded=0;strokeWidth=2;entryX=0.342;entryY=0.98;entryDx=0;entryDy=0;entryPerimeter=0;" edge="1" parent="1" target="c7aUdQC4seHfo43LI_77-9">
          <mxGeometry relative="1" as="geometry">
            <mxPoint x="100" y="430" as="sourcePoint" />
            <mxPoint x="180" y="430.5" as="targetPoint" />
          </mxGeometry>
        </mxCell>
        <mxCell id="c7aUdQC4seHfo43LI_77-17" value="" style="endArrow=none;html=1;rounded=0;strokeWidth=2;entryX=0;entryY=0;entryDx=0;entryDy=0;" edge="1" parent="1" target="c7aUdQC4seHfo43LI_77-13">
          <mxGeometry relative="1" as="geometry">
            <mxPoint x="190" y="350" as="sourcePoint" />
            <mxPoint x="280" y="360.5" as="targetPoint" />
          </mxGeometry>
        </mxCell>
        <mxCell id="c7aUdQC4seHfo43LI_77-18" value="&lt;font style=&quot;font-size: 15px;&quot;&gt;has&lt;/font&gt;" style="shape=rhombus;perimeter=rhombusPerimeter;whiteSpace=wrap;html=1;align=center;strokeWidth=2;" vertex="1" parent="1">
          <mxGeometry x="330" y="295" width="100" height="70" as="geometry" />
        </mxCell>
        <mxCell id="c7aUdQC4seHfo43LI_77-23" value="" style="endArrow=none;html=1;rounded=0;strokeWidth=2;entryX=0;entryY=0.5;entryDx=0;entryDy=0;exitX=1;exitY=0.5;exitDx=0;exitDy=0;" edge="1" parent="1" source="c7aUdQC4seHfo43LI_77-9" target="c7aUdQC4seHfo43LI_77-18">
          <mxGeometry relative="1" as="geometry">
            <mxPoint x="200" y="325" as="sourcePoint" />
            <mxPoint x="280" y="365" as="targetPoint" />
          </mxGeometry>
        </mxCell>
        <mxCell id="c7aUdQC4seHfo43LI_77-24" value="" style="endArrow=none;html=1;rounded=0;strokeWidth=2;exitX=0.5;exitY=0;exitDx=0;exitDy=0;" edge="1" parent="1" source="c7aUdQC4seHfo43LI_77-18">
          <mxGeometry relative="1" as="geometry">
            <mxPoint x="300" y="170" as="sourcePoint" />
            <mxPoint x="380" y="160" as="targetPoint" />
          </mxGeometry>
        </mxCell>
        <mxCell id="c7aUdQC4seHfo43LI_77-25" value="&lt;font style=&quot;font-size: 15px;&quot;&gt;manage&lt;/font&gt;" style="shape=rhombus;perimeter=rhombusPerimeter;whiteSpace=wrap;html=1;align=center;strokeWidth=2;" vertex="1" parent="1">
          <mxGeometry x="360" y="520" width="120" height="80" as="geometry" />
        </mxCell>
        <mxCell id="c7aUdQC4seHfo43LI_77-26" value="" style="endArrow=none;html=1;rounded=0;strokeWidth=2;" edge="1" parent="1">
          <mxGeometry relative="1" as="geometry">
            <mxPoint x="175" y="500" as="sourcePoint" />
            <mxPoint x="174.5" y="350" as="targetPoint" />
          </mxGeometry>
        </mxCell>
        <mxCell id="c7aUdQC4seHfo43LI_77-27" value="" style="endArrow=none;html=1;rounded=0;strokeWidth=2;exitX=0;exitY=0.5;exitDx=0;exitDy=0;" edge="1" parent="1" source="c7aUdQC4seHfo43LI_77-25">
          <mxGeometry relative="1" as="geometry">
            <mxPoint x="200" y="605" as="sourcePoint" />
            <mxPoint x="360" y="500" as="targetPoint" />
          </mxGeometry>
        </mxCell>
        <mxCell id="c7aUdQC4seHfo43LI_77-28" value="&lt;b&gt;&lt;font style=&quot;font-size: 15px;&quot;&gt;Project&lt;/font&gt;&lt;/b&gt;" style="whiteSpace=wrap;html=1;align=center;fillColor=#f5f5f5;strokeColor=#666666;fillStyle=auto;gradientColor=#b3b3b3;strokeWidth=2;" vertex="1" parent="1">
          <mxGeometry x="370" y="680" width="100" height="40" as="geometry" />
        </mxCell>
        <mxCell id="c7aUdQC4seHfo43LI_77-30" value="" style="endArrow=none;html=1;rounded=0;strokeWidth=2;" edge="1" parent="1">
          <mxGeometry relative="1" as="geometry">
            <mxPoint x="360" y="500" as="sourcePoint" />
            <mxPoint x="170" y="500" as="targetPoint" />
          </mxGeometry>
        </mxCell>
        <mxCell id="c7aUdQC4seHfo43LI_77-31" value="&lt;font style=&quot;font-size: 15px;&quot;&gt;name&lt;/font&gt;" style="ellipse;whiteSpace=wrap;html=1;align=center;strokeWidth=2;fillColor=#eeeeee;strokeColor=#36393d;" vertex="1" parent="1">
          <mxGeometry x="720" y="620" width="110" height="50" as="geometry" />
        </mxCell>
        <mxCell id="c7aUdQC4seHfo43LI_77-32" value="&lt;font style=&quot;font-size: 15px;&quot;&gt;type&lt;/font&gt;" style="ellipse;whiteSpace=wrap;html=1;align=center;strokeWidth=2;fillColor=#eeeeee;strokeColor=#36393d;" vertex="1" parent="1">
          <mxGeometry x="800" y="570" width="110" height="50" as="geometry" />
        </mxCell>
        <mxCell id="c7aUdQC4seHfo43LI_77-33" value="&lt;font style=&quot;font-size: 15px;&quot;&gt;contract_id&lt;/font&gt;" style="ellipse;whiteSpace=wrap;html=1;align=center;fontStyle=4;fillColor=#eeeeee;strokeColor=#36393d;strokeWidth=2;" vertex="1" parent="1">
          <mxGeometry x="810" y="510" width="120" height="50" as="geometry" />
        </mxCell>
        <mxCell id="c7aUdQC4seHfo43LI_77-34" value="" style="endArrow=none;html=1;rounded=0;strokeWidth=2;entryX=0;entryY=0.5;entryDx=0;entryDy=0;" edge="1" parent="1" target="c7aUdQC4seHfo43LI_77-33">
          <mxGeometry relative="1" as="geometry">
            <mxPoint x="737.5" y="540" as="sourcePoint" />
            <mxPoint x="812.5" y="587" as="targetPoint" />
          </mxGeometry>
        </mxCell>
        <mxCell id="c7aUdQC4seHfo43LI_77-35" value="" style="endArrow=none;html=1;rounded=0;strokeWidth=2;entryX=0.035;entryY=0.344;entryDx=0;entryDy=0;entryPerimeter=0;" edge="1" parent="1" target="c7aUdQC4seHfo43LI_77-32">
          <mxGeometry relative="1" as="geometry">
            <mxPoint x="740" y="570" as="sourcePoint" />
            <mxPoint x="820" y="560" as="targetPoint" />
          </mxGeometry>
        </mxCell>
        <mxCell id="c7aUdQC4seHfo43LI_77-37" value="" style="endArrow=none;html=1;rounded=0;strokeWidth=2;entryX=0;entryY=0.5;entryDx=0;entryDy=0;" edge="1" parent="1" target="c7aUdQC4seHfo43LI_77-51">
          <mxGeometry relative="1" as="geometry">
            <mxPoint x="480.5" y="560" as="sourcePoint" />
            <mxPoint x="480" y="660" as="targetPoint" />
          </mxGeometry>
        </mxCell>
        <mxCell id="c7aUdQC4seHfo43LI_77-39" value="&lt;font style=&quot;font-size: 15px;&quot;&gt;name&lt;/font&gt;" style="ellipse;whiteSpace=wrap;html=1;align=center;strokeWidth=2;fillColor=#eeeeee;strokeColor=#36393d;" vertex="1" parent="1">
          <mxGeometry x="535" y="710" width="110" height="50" as="geometry" />
        </mxCell>
        <mxCell id="c7aUdQC4seHfo43LI_77-40" value="&lt;span style=&quot;font-size: 15px;&quot;&gt;type&lt;/span&gt;" style="ellipse;whiteSpace=wrap;html=1;align=center;strokeWidth=2;fillColor=#eeeeee;strokeColor=#36393d;" vertex="1" parent="1">
          <mxGeometry x="510" y="790" width="110" height="50" as="geometry" />
        </mxCell>
        <mxCell id="c7aUdQC4seHfo43LI_77-41" value="&lt;font style=&quot;font-size: 15px;&quot;&gt;pro_id&lt;/font&gt;" style="ellipse;whiteSpace=wrap;html=1;align=center;fontStyle=4;fillColor=#eeeeee;strokeColor=#36393d;strokeWidth=2;" vertex="1" parent="1">
          <mxGeometry x="525" y="640" width="120" height="50" as="geometry" />
        </mxCell>
        <mxCell id="c7aUdQC4seHfo43LI_77-42" value="&lt;font style=&quot;font-size: 15px;&quot;&gt;start_date&lt;/font&gt;" style="ellipse;whiteSpace=wrap;html=1;align=center;strokeWidth=2;fillColor=#eeeeee;strokeColor=#36393d;" vertex="1" parent="1">
          <mxGeometry x="250" y="750" width="120" height="50" as="geometry" />
        </mxCell>
        <mxCell id="c7aUdQC4seHfo43LI_77-43" value="&lt;font style=&quot;font-size: 15px;&quot;&gt;last_date&lt;/font&gt;" style="ellipse;whiteSpace=wrap;html=1;align=center;strokeWidth=2;fillColor=#eeeeee;strokeColor=#36393d;" vertex="1" parent="1">
          <mxGeometry x="360" y="810" width="115" height="50" as="geometry" />
        </mxCell>
        <mxCell id="c7aUdQC4seHfo43LI_77-44" value="" style="endArrow=none;html=1;rounded=0;strokeWidth=2;entryX=0;entryY=0.25;entryDx=0;entryDy=0;exitX=0;exitY=0.75;exitDx=0;exitDy=0;" edge="1" parent="1" source="c7aUdQC4seHfo43LI_77-28">
          <mxGeometry relative="1" as="geometry">
            <mxPoint x="245" y="703" as="sourcePoint" />
            <mxPoint x="320" y="750" as="targetPoint" />
          </mxGeometry>
        </mxCell>
        <mxCell id="c7aUdQC4seHfo43LI_77-46" value="" style="endArrow=none;html=1;rounded=0;strokeWidth=2;entryX=0;entryY=0.25;entryDx=0;entryDy=0;" edge="1" parent="1">
          <mxGeometry relative="1" as="geometry">
            <mxPoint x="410" y="720" as="sourcePoint" />
            <mxPoint x="410" y="810" as="targetPoint" />
          </mxGeometry>
        </mxCell>
        <mxCell id="c7aUdQC4seHfo43LI_77-47" value="" style="endArrow=none;html=1;rounded=0;strokeWidth=2;entryX=0;entryY=0.25;entryDx=0;entryDy=0;exitX=0.75;exitY=1;exitDx=0;exitDy=0;" edge="1" parent="1" source="c7aUdQC4seHfo43LI_77-28">
          <mxGeometry relative="1" as="geometry">
            <mxPoint x="570" y="760" as="sourcePoint" />
            <mxPoint x="520" y="800" as="targetPoint" />
          </mxGeometry>
        </mxCell>
        <mxCell id="c7aUdQC4seHfo43LI_77-48" value="" style="endArrow=none;html=1;rounded=0;strokeWidth=2;entryX=1;entryY=0.5;entryDx=0;entryDy=0;exitX=0;exitY=0.75;exitDx=0;exitDy=0;" edge="1" parent="1" target="c7aUdQC4seHfo43LI_77-28">
          <mxGeometry relative="1" as="geometry">
            <mxPoint x="525" y="670" as="sourcePoint" />
            <mxPoint x="475" y="710" as="targetPoint" />
          </mxGeometry>
        </mxCell>
        <mxCell id="c7aUdQC4seHfo43LI_77-49" value="" style="endArrow=none;html=1;rounded=0;strokeWidth=2;entryX=0;entryY=0.25;entryDx=0;entryDy=0;exitX=0;exitY=0.5;exitDx=0;exitDy=0;" edge="1" parent="1" source="c7aUdQC4seHfo43LI_77-39">
          <mxGeometry relative="1" as="geometry">
            <mxPoint x="520" y="670" as="sourcePoint" />
            <mxPoint x="470" y="710" as="targetPoint" />
          </mxGeometry>
        </mxCell>
        <mxCell id="c7aUdQC4seHfo43LI_77-50" value="" style="endArrow=none;html=1;rounded=0;strokeWidth=2;entryX=0.5;entryY=0;entryDx=0;entryDy=0;exitX=0.5;exitY=1;exitDx=0;exitDy=0;" edge="1" parent="1" source="c7aUdQC4seHfo43LI_77-25" target="c7aUdQC4seHfo43LI_77-28">
          <mxGeometry relative="1" as="geometry">
            <mxPoint x="460" y="640" as="sourcePoint" />
            <mxPoint x="410" y="680" as="targetPoint" />
          </mxGeometry>
        </mxCell>
        <mxCell id="c7aUdQC4seHfo43LI_77-51" value="&lt;b&gt;&lt;font style=&quot;font-size: 15px;&quot;&gt;contract&lt;/font&gt;&lt;/b&gt;" style="whiteSpace=wrap;html=1;align=center;fillColor=#f5f5f5;strokeColor=#666666;fillStyle=auto;gradientColor=#b3b3b3;strokeWidth=2;" vertex="1" parent="1">
          <mxGeometry x="640" y="540" width="100" height="40" as="geometry" />
        </mxCell>
        <mxCell id="c7aUdQC4seHfo43LI_77-53" value="" style="endArrow=none;html=1;rounded=0;strokeWidth=2;entryX=0;entryY=0;entryDx=0;entryDy=0;" edge="1" parent="1" target="c7aUdQC4seHfo43LI_77-31">
          <mxGeometry relative="1" as="geometry">
            <mxPoint x="680" y="580" as="sourcePoint" />
            <mxPoint x="760" y="570" as="targetPoint" />
          </mxGeometry>
        </mxCell>
        <mxCell id="c7aUdQC4seHfo43LI_77-54" value="&lt;font style=&quot;font-size: 15px;&quot;&gt;has&lt;/font&gt;" style="shape=rhombus;perimeter=rhombusPerimeter;whiteSpace=wrap;html=1;align=center;strokeWidth=2;" vertex="1" parent="1">
          <mxGeometry x="640" y="390" width="100" height="70" as="geometry" />
        </mxCell>
        <mxCell id="c7aUdQC4seHfo43LI_77-55" value="" style="endArrow=none;html=1;rounded=0;strokeWidth=2;" edge="1" parent="1">
          <mxGeometry relative="1" as="geometry">
            <mxPoint x="690" y="540" as="sourcePoint" />
            <mxPoint x="690" y="460" as="targetPoint" />
          </mxGeometry>
        </mxCell>
        <mxCell id="c7aUdQC4seHfo43LI_77-58" value="&lt;b&gt;&lt;font style=&quot;font-size: 15px;&quot;&gt;company&lt;/font&gt;&lt;/b&gt;" style="whiteSpace=wrap;html=1;align=center;fillColor=#f5f5f5;strokeColor=#666666;fillStyle=auto;gradientColor=#b3b3b3;strokeWidth=2;" vertex="1" parent="1">
          <mxGeometry x="820" y="350" width="100" height="40" as="geometry" />
        </mxCell>
        <mxCell id="c7aUdQC4seHfo43LI_77-59" value="&lt;font style=&quot;font-size: 15px;&quot;&gt;name&lt;/font&gt;" style="ellipse;whiteSpace=wrap;html=1;align=center;strokeWidth=2;fillColor=#eeeeee;strokeColor=#36393d;" vertex="1" parent="1">
          <mxGeometry x="900" y="440" width="110" height="50" as="geometry" />
        </mxCell>
        <mxCell id="c7aUdQC4seHfo43LI_77-60" value="&lt;font style=&quot;font-size: 15px;&quot;&gt;type&lt;/font&gt;" style="ellipse;whiteSpace=wrap;html=1;align=center;strokeWidth=2;fillColor=#eeeeee;strokeColor=#36393d;" vertex="1" parent="1">
          <mxGeometry x="960" y="380" width="110" height="50" as="geometry" />
        </mxCell>
        <mxCell id="c7aUdQC4seHfo43LI_77-61" value="&lt;font style=&quot;font-size: 15px;&quot;&gt;company_id&lt;/font&gt;" style="ellipse;whiteSpace=wrap;html=1;align=center;fontStyle=4;fillColor=#eeeeee;strokeColor=#36393d;strokeWidth=2;" vertex="1" parent="1">
          <mxGeometry x="950" y="310" width="130" height="50" as="geometry" />
        </mxCell>
        <mxCell id="c7aUdQC4seHfo43LI_77-62" value="" style="endArrow=none;html=1;rounded=0;strokeWidth=2;entryX=0;entryY=0;entryDx=0;entryDy=0;" edge="1" parent="1" target="c7aUdQC4seHfo43LI_77-59">
          <mxGeometry relative="1" as="geometry">
            <mxPoint x="870" y="390" as="sourcePoint" />
            <mxPoint x="942.5" y="385" as="targetPoint" />
          </mxGeometry>
        </mxCell>
        <mxCell id="c7aUdQC4seHfo43LI_77-63" value="" style="endArrow=none;html=1;rounded=0;strokeWidth=2;" edge="1" parent="1">
          <mxGeometry relative="1" as="geometry">
            <mxPoint x="918.75" y="380" as="sourcePoint" />
            <mxPoint x="970" y="390" as="targetPoint" />
          </mxGeometry>
        </mxCell>
        <mxCell id="c7aUdQC4seHfo43LI_77-64" value="" style="endArrow=none;html=1;rounded=0;strokeWidth=2;entryX=0;entryY=0.5;entryDx=0;entryDy=0;" edge="1" parent="1" target="c7aUdQC4seHfo43LI_77-61">
          <mxGeometry relative="1" as="geometry">
            <mxPoint x="910" y="350" as="sourcePoint" />
            <mxPoint x="982.5" y="345" as="targetPoint" />
          </mxGeometry>
        </mxCell>
        <mxCell id="c7aUdQC4seHfo43LI_77-65" value="" style="endArrow=none;html=1;rounded=0;strokeWidth=2;" edge="1" parent="1">
          <mxGeometry relative="1" as="geometry">
            <mxPoint x="690" y="390" as="sourcePoint" />
            <mxPoint x="690" y="370" as="targetPoint" />
          </mxGeometry>
        </mxCell>
        <mxCell id="c7aUdQC4seHfo43LI_77-66" value="" style="endArrow=none;html=1;rounded=0;strokeWidth=2;entryX=0;entryY=0.5;entryDx=0;entryDy=0;" edge="1" parent="1" target="c7aUdQC4seHfo43LI_77-58">
          <mxGeometry relative="1" as="geometry">
            <mxPoint x="690" y="372.5" as="sourcePoint" />
            <mxPoint x="762.5" y="367.5" as="targetPoint" />
          </mxGeometry>
        </mxCell>
        <mxCell id="c7aUdQC4seHfo43LI_77-67" value="&lt;font style=&quot;font-size: 15px;&quot;&gt;has&lt;/font&gt;" style="shape=rhombus;perimeter=rhombusPerimeter;whiteSpace=wrap;html=1;align=center;strokeWidth=2;" vertex="1" parent="1">
          <mxGeometry x="820" y="210" width="100" height="70" as="geometry" />
        </mxCell>
        <mxCell id="c7aUdQC4seHfo43LI_77-68" value="" style="endArrow=none;html=1;rounded=0;strokeWidth=2;entryX=0.5;entryY=1;entryDx=0;entryDy=0;exitX=0.5;exitY=0;exitDx=0;exitDy=0;" edge="1" parent="1" source="c7aUdQC4seHfo43LI_77-58" target="c7aUdQC4seHfo43LI_77-67">
          <mxGeometry relative="1" as="geometry">
            <mxPoint x="860" y="350" as="sourcePoint" />
            <mxPoint x="990" y="347.5" as="targetPoint" />
          </mxGeometry>
        </mxCell>
        <mxCell id="c7aUdQC4seHfo43LI_77-70" value="&lt;b&gt;&lt;font style=&quot;font-size: 15px;&quot;&gt;employee&lt;/font&gt;&lt;/b&gt;" style="whiteSpace=wrap;html=1;align=center;fillColor=#f5f5f5;strokeColor=#666666;fillStyle=auto;gradientColor=#b3b3b3;strokeWidth=2;" vertex="1" parent="1">
          <mxGeometry x="1069" y="225" width="100" height="40" as="geometry" />
        </mxCell>
        <mxCell id="c7aUdQC4seHfo43LI_77-72" value="&lt;font style=&quot;font-size: 15px;&quot;&gt;emp_name&lt;/font&gt;" style="ellipse;whiteSpace=wrap;html=1;align=center;strokeWidth=2;fillColor=#eeeeee;strokeColor=#36393d;" vertex="1" parent="1">
          <mxGeometry x="1169" y="295" width="120" height="50" as="geometry" />
        </mxCell>
        <mxCell id="c7aUdQC4seHfo43LI_77-73" value="&lt;font style=&quot;font-size: 15px;&quot;&gt;emp_name&lt;/font&gt;" style="ellipse;whiteSpace=wrap;html=1;align=center;strokeWidth=2;fillColor=#eeeeee;strokeColor=#36393d;" vertex="1" parent="1">
          <mxGeometry x="1230" y="240" width="120" height="50" as="geometry" />
        </mxCell>
        <mxCell id="c7aUdQC4seHfo43LI_77-74" value="&lt;font style=&quot;font-size: 15px;&quot;&gt;contact_num&lt;/font&gt;" style="ellipse;whiteSpace=wrap;html=1;align=center;strokeWidth=2;fillColor=#eeeeee;strokeColor=#36393d;" vertex="1" parent="1">
          <mxGeometry x="1260" y="165" width="120" height="50" as="geometry" />
        </mxCell>
        <mxCell id="c7aUdQC4seHfo43LI_77-75" value="&lt;font style=&quot;font-size: 15px;&quot;&gt;emp_id&lt;/font&gt;" style="ellipse;whiteSpace=wrap;html=1;align=center;fontStyle=4;fillColor=#eeeeee;strokeColor=#36393d;strokeWidth=2;" vertex="1" parent="1">
          <mxGeometry x="1174" y="120" width="110" height="50" as="geometry" />
        </mxCell>
        <mxCell id="c7aUdQC4seHfo43LI_77-77" value="&lt;p style=&quot;line-height: 130%;&quot;&gt;&lt;font style=&quot;font-size: 15px;&quot;&gt;age&lt;/font&gt;&lt;/p&gt;" style="ellipse;whiteSpace=wrap;html=1;align=center;dashed=1;fillColor=#eeeeee;strokeColor=#36393d;strokeWidth=2;" vertex="1" parent="1">
          <mxGeometry x="950" y="165" width="100" height="40" as="geometry" />
        </mxCell>
        <mxCell id="c7aUdQC4seHfo43LI_77-79" value="" style="endArrow=none;html=1;rounded=0;strokeWidth=2;entryX=0;entryY=0.5;entryDx=0;entryDy=0;" edge="1" parent="1" target="c7aUdQC4seHfo43LI_77-70">
          <mxGeometry relative="1" as="geometry">
            <mxPoint x="920" y="245" as="sourcePoint" />
            <mxPoint x="960" y="230" as="targetPoint" />
          </mxGeometry>
        </mxCell>
        <mxCell id="c7aUdQC4seHfo43LI_77-81" value="" style="endArrow=none;html=1;rounded=0;strokeWidth=2;entryX=0;entryY=1;entryDx=0;entryDy=0;" edge="1" parent="1" target="c7aUdQC4seHfo43LI_77-75">
          <mxGeometry relative="1" as="geometry">
            <mxPoint x="1150" y="225" as="sourcePoint" />
            <mxPoint x="1150" y="165" as="targetPoint" />
          </mxGeometry>
        </mxCell>
        <mxCell id="c7aUdQC4seHfo43LI_77-82" value="" style="endArrow=none;html=1;rounded=0;strokeWidth=2;entryX=0.075;entryY=0.712;entryDx=0;entryDy=0;entryPerimeter=0;" edge="1" parent="1" target="c7aUdQC4seHfo43LI_77-74">
          <mxGeometry relative="1" as="geometry">
            <mxPoint x="1169" y="240" as="sourcePoint" />
            <mxPoint x="1260" y="205" as="targetPoint" />
          </mxGeometry>
        </mxCell>
        <mxCell id="c7aUdQC4seHfo43LI_77-83" value="" style="endArrow=none;html=1;rounded=0;strokeWidth=2;entryX=0.75;entryY=1;entryDx=0;entryDy=0;" edge="1" parent="1" target="c7aUdQC4seHfo43LI_77-70">
          <mxGeometry relative="1" as="geometry">
            <mxPoint x="1174" y="310" as="sourcePoint" />
            <mxPoint x="1174" y="250" as="targetPoint" />
          </mxGeometry>
        </mxCell>
        <mxCell id="c7aUdQC4seHfo43LI_77-84" value="" style="endArrow=none;html=1;rounded=0;strokeWidth=2;entryX=1;entryY=0.75;entryDx=0;entryDy=0;exitX=0;exitY=0.5;exitDx=0;exitDy=0;" edge="1" parent="1" source="c7aUdQC4seHfo43LI_77-73" target="c7aUdQC4seHfo43LI_77-70">
          <mxGeometry relative="1" as="geometry">
            <mxPoint x="1230" y="270" as="sourcePoint" />
            <mxPoint x="1230" y="210" as="targetPoint" />
          </mxGeometry>
        </mxCell>
        <mxCell id="c7aUdQC4seHfo43LI_77-85" value="" style="endArrow=none;html=1;rounded=0;strokeWidth=2;exitX=0;exitY=0.25;exitDx=0;exitDy=0;" edge="1" parent="1" source="c7aUdQC4seHfo43LI_77-70">
          <mxGeometry relative="1" as="geometry">
            <mxPoint x="1040" y="250" as="sourcePoint" />
            <mxPoint x="1040" y="200" as="targetPoint" />
          </mxGeometry>
        </mxCell>
        <mxCell id="c7aUdQC4seHfo43LI_77-90" value="&lt;p style=&quot;line-height: 130%;&quot;&gt;&lt;font style=&quot;font-size: 15px;&quot;&gt;d&lt;/font&gt;&lt;/p&gt;" style="ellipse;whiteSpace=wrap;html=1;direction=south;strokeWidth=2;" vertex="1" parent="1">
          <mxGeometry x="1090" y="30" width="50" height="50" as="geometry" />
        </mxCell>
        <mxCell id="c7aUdQC4seHfo43LI_77-91" value="&lt;b&gt;&lt;font style=&quot;font-size: 15px;&quot;&gt;staff&lt;/font&gt;&lt;/b&gt;" style="whiteSpace=wrap;html=1;align=center;fillColor=#f5f5f5;strokeColor=#666666;fillStyle=auto;gradientColor=#b3b3b3;strokeWidth=2;" vertex="1" parent="1">
          <mxGeometry x="960" y="-90" width="100" height="40" as="geometry" />
        </mxCell>
        <mxCell id="c7aUdQC4seHfo43LI_77-92" value="&lt;b&gt;&lt;font style=&quot;font-size: 15px;&quot;&gt;management&lt;/font&gt;&lt;/b&gt;" style="whiteSpace=wrap;html=1;align=center;fillColor=#f5f5f5;strokeColor=#666666;fillStyle=auto;gradientColor=#b3b3b3;strokeWidth=2;" vertex="1" parent="1">
          <mxGeometry x="1180" y="-90" width="140" height="40" as="geometry" />
        </mxCell>
        <mxCell id="c7aUdQC4seHfo43LI_77-93" value="" style="shape=link;html=1;rounded=0;entryX=1;entryY=0.5;entryDx=0;entryDy=0;strokeWidth=2;" edge="1" parent="1" target="c7aUdQC4seHfo43LI_77-90">
          <mxGeometry width="100" relative="1" as="geometry">
            <mxPoint x="1115" y="225" as="sourcePoint" />
            <mxPoint x="1210" y="225" as="targetPoint" />
          </mxGeometry>
        </mxCell>
        <mxCell id="c7aUdQC4seHfo43LI_77-95" value="" style="endArrow=none;html=1;rounded=0;strokeWidth=2;entryX=0;entryY=1;entryDx=0;entryDy=0;exitX=0;exitY=1;exitDx=0;exitDy=0;" edge="1" parent="1" source="c7aUdQC4seHfo43LI_77-90">
          <mxGeometry relative="1" as="geometry">
            <mxPoint x="980" y="12" as="sourcePoint" />
            <mxPoint x="1020" y="-50" as="targetPoint" />
          </mxGeometry>
        </mxCell>
        <mxCell id="c7aUdQC4seHfo43LI_77-96" value="" style="endArrow=none;html=1;rounded=0;strokeWidth=2;" edge="1" parent="1" source="c7aUdQC4seHfo43LI_77-99">
          <mxGeometry relative="1" as="geometry">
            <mxPoint x="1134" y="42" as="sourcePoint" />
            <mxPoint x="1210" y="-50" as="targetPoint" />
          </mxGeometry>
        </mxCell>
        <mxCell id="c7aUdQC4seHfo43LI_77-97" value="" style="shape=requiredInterface;html=1;verticalLabelPosition=bottom;sketch=0;direction=north;rotation=-30;strokeWidth=2;" vertex="1" parent="1">
          <mxGeometry x="1054" width="26" height="10" as="geometry" />
        </mxCell>
        <mxCell id="c7aUdQC4seHfo43LI_77-100" value="" style="endArrow=none;html=1;rounded=0;strokeWidth=2;entryX=1;entryY=0.5;entryDx=0;entryDy=0;entryPerimeter=0;" edge="1" parent="1" target="c7aUdQC4seHfo43LI_77-99">
          <mxGeometry relative="1" as="geometry">
            <mxPoint x="1134" y="42" as="sourcePoint" />
            <mxPoint x="1210" y="-50" as="targetPoint" />
          </mxGeometry>
        </mxCell>
        <mxCell id="c7aUdQC4seHfo43LI_77-99" value="" style="shape=requiredInterface;html=1;verticalLabelPosition=bottom;sketch=0;direction=north;rotation=45;strokeWidth=2;" vertex="1" parent="1">
          <mxGeometry x="1154" width="26" height="10" as="geometry" />
        </mxCell>
        <mxCell id="c7aUdQC4seHfo43LI_77-101" value="&lt;font style=&quot;font-size: 15px;&quot;&gt;username&lt;/font&gt;" style="ellipse;whiteSpace=wrap;html=1;align=center;strokeWidth=2;fillColor=#eeeeee;strokeColor=#36393d;" vertex="1" parent="1">
          <mxGeometry x="1240" y="-180" width="100" height="50" as="geometry" />
        </mxCell>
        <mxCell id="c7aUdQC4seHfo43LI_77-102" value="&lt;font style=&quot;font-size: 15px;&quot;&gt;password&lt;/font&gt;" style="ellipse;whiteSpace=wrap;html=1;align=center;strokeWidth=2;fillColor=#eeeeee;strokeColor=#36393d;" vertex="1" parent="1">
          <mxGeometry x="1370" y="-120" width="100" height="50" as="geometry" />
        </mxCell>
        <mxCell id="c7aUdQC4seHfo43LI_77-103" value="" style="endArrow=none;html=1;rounded=0;strokeWidth=2;" edge="1" parent="1">
          <mxGeometry relative="1" as="geometry">
            <mxPoint x="1244" y="-90" as="sourcePoint" />
            <mxPoint x="1270" y="-130" as="targetPoint" />
          </mxGeometry>
        </mxCell>
        <mxCell id="c7aUdQC4seHfo43LI_77-104" value="" style="endArrow=none;html=1;rounded=0;strokeWidth=2;" edge="1" parent="1" target="c7aUdQC4seHfo43LI_77-102">
          <mxGeometry relative="1" as="geometry">
            <mxPoint x="1320" y="-64" as="sourcePoint" />
            <mxPoint x="1360" y="-126" as="targetPoint" />
          </mxGeometry>
        </mxCell>
        <mxCell id="c7aUdQC4seHfo43LI_77-105" value="" style="endArrow=none;html=1;rounded=0;strokeWidth=2;entryX=0;entryY=1;entryDx=0;entryDy=0;" edge="1" parent="1">
          <mxGeometry relative="1" as="geometry">
            <mxPoint x="1040" y="-90" as="sourcePoint" />
            <mxPoint x="1080" y="-152" as="targetPoint" />
          </mxGeometry>
        </mxCell>
        <mxCell id="c7aUdQC4seHfo43LI_77-107" value="&lt;font style=&quot;font-size: 15px;&quot;&gt;position&lt;/font&gt;" style="ellipse;whiteSpace=wrap;html=1;align=center;strokeWidth=2;fillColor=#eeeeee;strokeColor=#36393d;" vertex="1" parent="1">
          <mxGeometry x="1040" y="-200" width="100" height="50" as="geometry" />
        </mxCell>
      </root>
    </mxGraphModel>
  </diagram>
</mxfile>
